HIERARCHY
ROOT Hips
{
	OFFSET 0.000000 0.000000 0.000000
	CHANNELS 6 Xposition Yposition Zposition Zrotation Yrotation Xrotation 
	JOINT LHipJoint
	{
		OFFSET 0.000000 0.000000 0.000000
		CHANNELS 3 Zrotation Yrotation Xrotation
		JOINT LeftUpLeg
		{
			OFFSET 1.363060 -1.794630 0.839290
			CHANNELS 3 Zrotation Yrotation Xrotation
			JOINT LeftLeg
			{
				OFFSET 2.448110 -6.726130 0.000000
				CHANNELS 3 Zrotation Yrotation Xrotation
				JOINT LeftFoot
				{
					OFFSET 2.562200 -7.039590 0.000000
					CHANNELS 3 Zrotation Yrotation Xrotation
					JOINT LeftToeBase
					{
						OFFSET 0.157640 -0.433110 2.322550
						CHANNELS 3 Zrotation Yrotation Xrotation
						End Site
						{
							OFFSET 0.000000 0.000000 0.000000
						}
					}
				}
			}
		}
	}
	JOINT RHipJoint
	{
		OFFSET 0.000000 0.000000 0.000000
		CHANNELS 3 Zrotation Yrotation Xrotation
		JOINT RightUpLeg
		{
			OFFSET -1.305520 -1.794630 0.839290
			CHANNELS 3 Zrotation Yrotation Xrotation
			JOINT RightLeg
			{
				OFFSET -2.542530 -6.985550 0.000000
				CHANNELS 3 Zrotation Yrotation Xrotation
				JOINT RightFoot
				{
					OFFSET -2.568260 -7.056230 0.000000
					CHANNELS 3 Zrotation Yrotation Xrotation
					JOINT RightToeBase
					{
						OFFSET -0.164730 -0.452590 2.363150
						CHANNELS 3 Zrotation Yrotation Xrotation
						End Site
						{
							OFFSET 0.000000 0.000000 0.000000
						}
					}
				}
			}
		}
	}
	JOINT LowerBack
	{
		OFFSET 0.000000 0.000000 0.000000
		CHANNELS 3 Zrotation Yrotation Xrotation
		JOINT Spine
		{
			OFFSET 0.028270 2.035590 -0.193380
			CHANNELS 3 Zrotation Yrotation Xrotation
			JOINT Spine1
			{
				OFFSET 0.056720 2.048850 -0.042750
				CHANNELS 3 Zrotation Yrotation Xrotation
				JOINT Neck
				{
					OFFSET 0.000000 0.000000 0.000000
					CHANNELS 3 Zrotation Yrotation Xrotation
					JOINT Neck1
					{
						OFFSET -0.054170 1.746240 0.172020
						CHANNELS 3 Zrotation Yrotation Xrotation
						JOINT Head
						{
							OFFSET 0.104070 1.761360 -0.123970
							CHANNELS 3 Zrotation Yrotation Xrotation
							End Site
							{
								OFFSET 0.000000 0.000000 0.000000
							}
						}
					}
				}
				JOINT LeftShoulder
				{
					OFFSET 0.000000 0.000000 0.000000
					CHANNELS 3 Zrotation Yrotation Xrotation
					JOINT LeftArm
					{
						OFFSET 3.362410 1.200890 -0.311210
						CHANNELS 3 Zrotation Yrotation Xrotation
						JOINT LeftForeArm
						{
							OFFSET 4.983000 -0.000000 -0.000000
							CHANNELS 3 Zrotation Yrotation Xrotation
							JOINT LeftHand
							{
								OFFSET 3.483560 -0.000000 -0.000000
								CHANNELS 3 Zrotation Yrotation Xrotation
								JOINT LeftFingerBase
								{
									OFFSET 0.000000 0.000000 0.000000
									CHANNELS 3 Zrotation Yrotation Xrotation
									JOINT LeftHandIndex1
									{
										OFFSET 0.715260 -0.000000 -0.000000
										CHANNELS 3 Zrotation Yrotation Xrotation
										End Site
										{
											OFFSET 0.000000 0.000000 0.000000
										}
									}
								}
								JOINT LThumb
								{
									OFFSET 0.000000 0.000000 0.000000
									CHANNELS 3 Zrotation Yrotation Xrotation
									End Site
									{
										OFFSET 0.000000 0.000000 0.000000
									}
								}
							}
						}
					}
				}
				JOINT RightShoulder
				{
					OFFSET 0.000000 0.000000 0.000000
					CHANNELS 3 Zrotation Yrotation Xrotation
					JOINT RightArm
					{
						OFFSET -3.136600 1.374050 -0.404650
						CHANNELS 3 Zrotation Yrotation Xrotation
						JOINT RightForeArm
						{
							OFFSET -5.241900 -0.000000 -0.000000
							CHANNELS 3 Zrotation Yrotation Xrotation
							JOINT RightHand
							{
								OFFSET -3.444170 -0.000000 -0.000000
								CHANNELS 3 Zrotation Yrotation Xrotation
								JOINT RightFingerBase
								{
									OFFSET 0.000000 0.000000 0.000000
									CHANNELS 3 Zrotation Yrotation Xrotation
									JOINT RightHandIndex1
									{
										OFFSET -0.622530 -0.000000 -0.000000
										CHANNELS 3 Zrotation Yrotation Xrotation
										End Site
										{
											OFFSET 0.000000 0.000000 0.000000
										}
									}
								}
								JOINT RThumb
								{
									OFFSET 0.000000 0.000000 0.000000
									CHANNELS 3 Zrotation Yrotation Xrotation
									End Site
									{
										OFFSET 0.000000 0.000000 0.000000
									}
								}
							}
						}
					}
				}
			}
		}
	}
}
MOTION
Frames: 5
Frame Time: 0.008333
10.331136 14.766362 16.473837 167.706980 3.527518 161.420662 -2.000282 -23.853149 -0.320921 14.514478 15.220420 -15.390849 -44.350399 13.488367 16.928708 22.036732 20.825404 67.447708 0.121700 -2.248900 -6.194000 9.606707 2.348330 -14.654456 -2.825460 -30.112139 -38.976297 -0.948836 -29.172980 39.012094 -16.420386 -21.942493 58.407462 -0.479000 4.438400 -12.313300 5.372277 5.286723 44.220152 -17.709776 -5.009033 24.049180 2.796288 -10.751038 -0.280314 -7.610275 -3.600418 -19.854935 6.457920 -5.445953 4.794283 2.623400 -2.496800 0.379300 7.294539 -31.020112 -4.467774 -15.960658 -43.428305 40.569094 33.038046 -17.548455 -22.428880 -4.591964 -1.935412 25.445455 17.381752 8.882915 4.697300 -7.125000 0.000000 0.000000 -5.953800 43.276200 0.254200 -0.286929 25.283668 -0.449028 12.476496 38.612927 36.257613 -38.021698 25.170503 -26.374081 -0.984886 0.701654 7.689928 -13.101414 8.892716 -1.772800 7.125000 0.000000 0.000000 10.709700 -21.498700 6.145600 
10.331837 14.768326 16.474819 167.727323 3.439923 161.493494 -1.917696 -24.011387 -0.348774 14.491625 15.325665 -15.421619 -44.500945 13.545026 16.849989 22.089446 20.496935 67.468943 0.171200 -2.665500 -7.348800 9.463422 2.564650 -14.592668 -2.847680 -29.990489 -38.731284 -0.587674 -29.110340 38.975675 -16.591102 -17.347816 59.981362 -1.997100 8.859900 -25.358200 5.385320 5.218973 44.160183 -17.668434 -4.956986 24.105718 2.716891 -10.719122 -0.287861 -7.622052 -3.577347 -19.946000 6.454731 -5.407993 4.830665 2.639800 -2.474900 0.437000 7.274871 -31.166917 -4.449932 -15.922997 -43.461599 40.519495 32.909934 -17.374586 -22.260141 -4.533951 -1.879853 25.776461 17.210226 8.859141 4.614000 -7.125000 0.000000 0.000000 -6.140300 43.169300 0.278500 -0.360942 25.455270 -0.613683 12.207347 38.514984 36.395096 -37.614780 25.099156 -26.014449 -1.278029 0.557261 7.229041 -12.505144 9.651200 -1.826200 7.125000 0.000000 0.000000 11.276500 -20.587900 6.720500 
10.331697 14.767484 16.472574 167.649534 3.583988 161.453731 -1.945336 -23.883404 -0.278903 14.488530 15.296239 -15.436991 -44.605097 13.626137 16.789588 22.104402 20.362177 67.465240 0.178700 -2.723100 -7.508800 9.596430 2.426454 -14.852648 -2.907471 -30.103035 -38.956910 -1.371239 -29.081746 38.907458 -16.341960 -22.070713 58.346500 -0.416300 4.141300 -11.474700 5.372059 5.116393 44.201874 -17.987830 -4.596875 23.961253 2.822768 -11.121351 -0.185281 -7.577719 -3.559632 -20.031838 6.460665 -5.368063 4.806084 2.609300 -2.462300 0.462500 7.234771 -31.184283 -4.473164 -15.933883 -43.466066 40.508248 32.846493 -17.282142 -22.175898 -4.608129 -1.814834 25.838467 17.362642 8.939142 4.691800 -7.125000 0.000000 0.000000 -5.931300 43.248700 0.257300 -0.145566 25.115887 -0.431525 12.711960 38.709043 36.126927 -38.141458 25.283286 -26.684735 -1.616429 0.684944 7.838628 -11.740016 9.996291 -1.689200 7.125000 0.000000 0.000000 12.055000 -20.345400 7.272300 
10.330996 14.765520 16.470750 167.626595 3.559494 161.419504 -2.012073 -23.863166 -0.279791 14.483256 15.252616 -15.447987 -44.476118 13.533040 16.938056 22.078293 20.552751 67.457446 0.156700 -2.550800 -7.030500 9.605906 2.364947 -14.839084 -2.918268 -30.099475 -39.003970 -1.437274 -29.106386 38.926797 -16.278066 -22.860804 58.027862 -0.269400 3.338900 -9.223600 5.349868 5.168099 44.265541 -17.880057 -4.757831 24.029862 2.770426 -10.959105 -0.277918 -7.564420 -3.619113 -19.982565 6.452212 -5.448786 4.806747 2.586000 -2.503400 0.450400 7.247397 -31.188363 -4.471615 -16.001819 -43.548573 40.684561 32.858755 -17.197197 -22.130229 -4.670874 -1.755511 25.816916 17.502928 9.012923 4.761500 -7.125000 0.000000 0.000000 -5.737600 43.314900 0.239400 -0.206306 25.259631 -0.453195 12.468780 38.563523 36.275836 -37.896034 25.173907 -26.345717 -1.388478 0.716327 7.860097 -12.181445 9.445472 -1.687100 7.125000 0.000000 0.000000 11.621400 -20.938100 6.840600 
10.331136 14.766643 16.471592 167.617595 3.527167 161.402570 -2.042557 -23.888003 -0.292952 14.465845 15.263353 -15.451186 -44.363474 13.456045 17.026568 22.041804 20.879020 67.413806 0.133800 -2.357800 -6.495500 9.593433 2.320974 -14.704292 -2.905318 -30.070930 -38.990744 -1.109871 -29.171503 39.002257 -16.367825 -22.475376 58.204288 -0.373500 3.925200 -10.866300 5.293503 5.236018 44.312281 -17.726127 -4.978684 24.108558 2.732326 -10.713161 -0.387715 -7.605491 -3.658720 -19.921692 6.464113 -5.514492 4.800182 2.617600 -2.528800 0.423200 7.270212 -31.165019 -4.472052 -16.040552 -43.602988 40.740479 32.902372 -17.179462 -22.153341 -4.624626 -1.718835 25.829557 17.492963 8.911383 4.695900 -7.125000 0.000000 0.000000 -5.744400 43.150500 0.263100 -0.318424 25.455282 -0.517776 12.206518 38.441875 36.397648 -37.637584 25.073469 -26.017106 -1.191924 0.640432 7.658307 -12.652560 9.233940 -1.762200 7.125000 0.000000 0.000000 11.148000 -21.085100 6.513200 
